<svg width="464" height="448" viewBox="0 0 464 448" fill="none" xmlns="http://www.w3.org/2000/svg">
<path d="M0 407C0 402.582 3.58172 399 8 399H144C148.418 399 152 402.582 152 407V439C152 443.418 148.418 447 144 447H8C3.58172 447 0 443.418 0 439V407Z" fill="white"/>
<path d="M48.9241 428H52.7881C54.6781 428 55.9941 426.726 55.9941 425.088C55.9941 423.856 55.3081 423.1 54.3981 422.722C54.9441 422.316 55.3221 421.7 55.3221 420.804C55.3221 419.306 54.1321 418.06 52.3541 418.06H48.9241V428ZM50.5621 426.502V423.646H52.7461C53.8101 423.646 54.3981 424.248 54.3981 425.074C54.3981 425.914 53.8101 426.502 52.7461 426.502H50.5621ZM50.5621 422.246V419.558H52.2701C53.1661 419.558 53.7121 420.174 53.7121 420.902C53.7121 421.672 53.1661 422.246 52.2701 422.246H50.5621ZM60.4441 428.14C61.4521 428.14 62.2921 427.622 62.6841 427.062V428H64.2241V421H62.6841V421.938C62.2921 421.378 61.4521 420.86 60.4441 420.86C58.5261 420.86 57.0701 422.498 57.0701 424.5C57.0701 426.502 58.5261 428.14 60.4441 428.14ZM60.7241 426.74C59.4921 426.74 58.6381 425.76 58.6381 424.5C58.6381 423.24 59.4921 422.26 60.7241 422.26C61.9561 422.26 62.8101 423.24 62.8101 424.5C62.8101 425.76 61.9561 426.74 60.7241 426.74ZM69.4744 428.14C71.3224 428.14 72.6664 426.992 73.0304 425.438H71.4064C71.1264 426.208 70.4404 426.74 69.4744 426.74C68.2284 426.74 67.3744 425.802 67.3744 424.5C67.3744 423.198 68.2284 422.26 69.4744 422.26C70.4404 422.26 71.1264 422.792 71.4064 423.562H73.0304C72.6664 422.008 71.3224 420.86 69.4744 420.86C67.3464 420.86 65.8064 422.484 65.8064 424.5C65.8064 426.516 67.3464 428.14 69.4744 428.14ZM79.3722 428H81.3462L77.5242 424.122L80.6462 421H78.7002L76.0262 423.66V417.5H74.4862V428H76.0262V424.626L79.3722 428ZM82.1424 428H83.6824V417.5H82.1424V428ZM86.5218 419.474C87.0958 419.474 87.5438 419.012 87.5438 418.438C87.5438 417.878 87.0958 417.416 86.5218 417.416C85.9618 417.416 85.4858 417.878 85.4858 418.438C85.4858 419.012 85.9618 419.474 86.5218 419.474ZM85.7518 428H87.2918V421H85.7518V428ZM89.3612 428H90.9012V424.556C90.9012 423.044 91.6852 422.26 92.7072 422.26C93.6032 422.26 94.1632 422.918 94.1632 424.038V428H95.7032V423.786C95.7032 422.008 94.6532 420.86 93.0292 420.86C92.1192 420.86 91.3352 421.238 90.9012 421.952V421H89.3612V428ZM102.56 428H104.534L100.712 424.122L103.834 421H101.888L99.2137 423.66V417.5H97.6737V428H99.2137V424.626L102.56 428Z" fill="#2E3A59"/>
<path d="M8 400H144V398H8V400ZM151 407V439H153V407H151ZM144 446H8V448H144V446ZM1 439V407H-1V439H1ZM8 446C4.134 446 1 442.866 1 439H-1C-1 443.971 3.02943 448 8 448V446ZM151 439C151 442.866 147.866 446 144 446V448C148.971 448 153 443.971 153 439H151ZM144 400C147.866 400 151 403.134 151 407H153C153 402.029 148.971 398 144 398V400ZM8 398C3.02944 398 -1 402.029 -1 407H1C1 403.134 4.13401 400 8 400V398Z" fill="white"/>
<g filter="url(#filter0_d_2_2869)">
<rect x="80" y="24" width="280" height="384" rx="16" fill="#F7F9FC"/>
<rect x="84" y="28" width="272" height="376" rx="12" stroke="white" stroke-width="8"/>
</g>
<path d="M312 128C312 123.582 315.582 120 320 120H456C460.418 120 464 123.582 464 128V152C464 156.418 460.418 160 456 160H320C315.582 160 312 156.418 312 152V128Z" fill="#FFD339"/>
<path d="M366.158 145.168C368.552 145.168 370.456 143.614 370.946 141.668H369.182C368.762 142.802 367.558 143.586 366.158 143.586C364.086 143.586 362.63 142.032 362.63 140.03C362.63 138.028 364.086 136.474 366.158 136.474C367.558 136.474 368.762 137.258 369.182 138.392H370.946C370.456 136.446 368.552 134.892 366.158 134.892C363.19 134.892 360.978 137.118 360.978 140.03C360.978 142.942 363.19 145.168 366.158 145.168ZM375.582 145.14C377.654 145.14 379.25 143.53 379.25 141.5C379.25 139.47 377.654 137.86 375.582 137.86C373.51 137.86 371.914 139.47 371.914 141.5C371.914 143.53 373.51 145.14 375.582 145.14ZM375.582 143.712C374.336 143.712 373.468 142.746 373.468 141.5C373.468 140.254 374.336 139.288 375.582 139.288C376.814 139.288 377.682 140.254 377.682 141.5C377.682 142.746 376.814 143.712 375.582 143.712ZM380.799 145H382.339V141.556C382.339 140.044 383.123 139.26 384.145 139.26C385.041 139.26 385.601 139.918 385.601 141.038V145H387.141V140.786C387.141 139.008 386.091 137.86 384.467 137.86C383.557 137.86 382.773 138.238 382.339 138.952V138H380.799V145ZM392.067 145.07C392.557 145.07 392.893 145.014 393.215 144.916V143.544C392.991 143.642 392.683 143.684 392.389 143.684C391.591 143.684 391.213 143.376 391.213 142.494V139.372H393.215V138H391.213V136.054H389.673V138H388.217V139.372H389.673V142.746C389.673 144.328 390.723 145.07 392.067 145.07ZM397.674 145.14C399.466 145.14 400.698 144.104 401.104 142.802H399.494C399.172 143.474 398.514 143.782 397.73 143.782C396.498 143.782 395.658 142.942 395.616 141.878H401.188C401.342 139.498 399.83 137.86 397.688 137.86C395.518 137.86 394.09 139.428 394.09 141.5C394.09 143.6 395.588 145.14 397.674 145.14ZM397.646 139.148C398.5 139.148 399.298 139.652 399.536 140.786H395.658C395.868 139.708 396.68 139.148 397.646 139.148ZM402.769 145H404.309V141.556C404.309 140.044 405.093 139.26 406.115 139.26C407.011 139.26 407.571 139.918 407.571 141.038V145H409.111V140.786C409.111 139.008 408.061 137.86 406.437 137.86C405.527 137.86 404.743 138.238 404.309 138.952V138H402.769V145ZM414.038 145.07C414.528 145.07 414.864 145.014 415.186 144.916V143.544C414.962 143.642 414.654 143.684 414.36 143.684C413.562 143.684 413.184 143.376 413.184 142.494V139.372H415.186V138H413.184V136.054H411.644V138H410.188V139.372H411.644V142.746C411.644 144.328 412.694 145.07 414.038 145.07Z" fill="#222B45"/>
<path d="M154.135 113V95.96H160.015C161.503 95.96 162.719 96.416 163.663 97.328C164.623 98.24 165.103 99.352 165.103 100.664C165.103 102.072 164.575 103.168 163.519 103.952C165.343 104.704 166.255 106.056 166.255 108.008C166.255 109.432 165.735 110.624 164.695 111.584C163.671 112.528 162.359 113 160.759 113H154.135ZM156.943 110.432H160.687C161.583 110.432 162.279 110.208 162.775 109.76C163.271 109.312 163.519 108.72 163.519 107.984C163.519 107.264 163.271 106.68 162.775 106.232C162.279 105.768 161.583 105.536 160.687 105.536H156.943V110.432ZM156.943 103.136H159.871C160.623 103.136 161.223 102.92 161.671 102.488C162.119 102.056 162.343 101.504 162.343 100.832C162.343 100.192 162.119 99.648 161.671 99.2C161.223 98.752 160.623 98.528 159.871 98.528H156.943V103.136ZM168.893 113V95H171.533V113H168.893ZM184.969 111.44C183.769 112.64 182.281 113.24 180.505 113.24C178.729 113.24 177.233 112.64 176.017 111.44C174.817 110.224 174.217 108.744 174.217 107C174.217 105.256 174.817 103.784 176.017 102.584C177.233 101.368 178.729 100.76 180.505 100.76C182.281 100.76 183.769 101.368 184.969 102.584C186.185 103.784 186.793 105.256 186.793 107C186.793 108.744 186.185 110.224 184.969 111.44ZM180.505 110.792C181.545 110.792 182.401 110.432 183.073 109.712C183.761 108.976 184.105 108.072 184.105 107C184.105 105.928 183.761 105.032 183.073 104.312C182.401 103.576 181.545 103.208 180.505 103.208C179.449 103.208 178.577 103.576 177.889 104.312C177.217 105.032 176.881 105.928 176.881 107C176.881 108.072 177.217 108.976 177.889 109.712C178.577 110.432 179.449 110.792 180.505 110.792ZM194.872 118.256C193.24 118.256 191.896 117.856 190.84 117.056C189.8 116.256 189.2 115.216 189.04 113.936H191.632C192.096 115.312 193.2 116 194.944 116C195.888 116 196.664 115.688 197.272 115.064C197.896 114.456 198.208 113.592 198.208 112.472V111.056C197.824 111.6 197.288 112.048 196.6 112.4C195.912 112.752 195.168 112.928 194.368 112.928C192.752 112.928 191.384 112.344 190.264 111.176C189.16 109.992 188.608 108.544 188.608 106.832C188.608 105.136 189.16 103.704 190.264 102.536C191.384 101.352 192.752 100.76 194.368 100.76C195.168 100.76 195.912 100.936 196.6 101.288C197.288 101.624 197.824 102.064 198.208 102.608V101H200.848V112.256C200.848 114.24 200.28 115.736 199.144 116.744C198.024 117.752 196.6 118.256 194.872 118.256ZM192.304 109.472C192.992 110.16 193.84 110.504 194.848 110.504C195.856 110.504 196.704 110.16 197.392 109.472C198.08 108.768 198.424 107.888 198.424 106.832C198.424 105.776 198.08 104.904 197.392 104.216C196.704 103.512 195.856 103.16 194.848 103.16C193.84 103.16 192.992 103.512 192.304 104.216C191.616 104.904 191.272 105.776 191.272 106.832C191.272 107.888 191.616 108.768 192.304 109.472ZM219.852 113L217.212 105.248L214.596 113H212.1L208.068 101H210.852L213.444 109.28L216.204 101H218.22L220.932 109.28L223.572 101H226.38L222.348 113H219.852ZM228.354 113V101H230.994V103.136C231.218 102.464 231.626 101.92 232.218 101.504C232.826 101.088 233.474 100.88 234.162 100.88C234.578 100.88 234.922 100.912 235.194 100.976V103.688C234.81 103.544 234.37 103.472 233.874 103.472C233.074 103.472 232.394 103.8 231.834 104.456C231.274 105.096 230.994 105.992 230.994 107.144V113H228.354ZM238.791 98.384C238.311 98.384 237.895 98.216 237.543 97.88C237.191 97.528 237.015 97.104 237.015 96.608C237.015 96.128 237.191 95.72 237.543 95.384C237.895 95.032 238.311 94.856 238.791 94.856C239.287 94.856 239.703 95.032 240.039 95.384C240.375 95.72 240.543 96.128 240.543 96.608C240.543 97.104 240.375 97.528 240.039 97.88C239.703 98.216 239.287 98.384 238.791 98.384ZM237.471 113V101H240.111V113H237.471ZM248.867 113.12C247.651 113.12 246.659 112.784 245.891 112.112C245.139 111.424 244.763 110.432 244.763 109.136V103.352H242.267V101H244.763V97.664H247.403V101H250.835V103.352H247.403V108.704C247.403 109.44 247.563 109.968 247.883 110.288C248.203 110.592 248.715 110.744 249.419 110.744C249.995 110.744 250.467 110.664 250.835 110.504V112.856C250.259 113.032 249.603 113.12 248.867 113.12ZM254.659 98.384C254.179 98.384 253.763 98.216 253.411 97.88C253.059 97.528 252.883 97.104 252.883 96.608C252.883 96.128 253.059 95.72 253.411 95.384C253.763 95.032 254.179 94.856 254.659 94.856C255.155 94.856 255.571 95.032 255.907 95.384C256.243 95.72 256.411 96.128 256.411 96.608C256.411 97.104 256.243 97.528 255.907 97.88C255.571 98.216 255.155 98.384 254.659 98.384ZM253.339 113V101H255.979V113H253.339ZM259.526 113V101H262.166V102.632C262.918 101.384 264.134 100.76 265.814 100.76C267.206 100.76 268.318 101.216 269.15 102.128C269.982 103.04 270.398 104.256 270.398 105.776V113H267.758V106.208C267.758 105.248 267.534 104.504 267.086 103.976C266.638 103.432 266.03 103.16 265.262 103.16C264.35 103.16 263.606 103.504 263.03 104.192C262.454 104.88 262.166 105.848 262.166 107.096V113H259.526ZM279.2 118.256C277.568 118.256 276.224 117.856 275.168 117.056C274.128 116.256 273.528 115.216 273.368 113.936H275.96C276.424 115.312 277.528 116 279.272 116C280.216 116 280.992 115.688 281.6 115.064C282.224 114.456 282.536 113.592 282.536 112.472V111.056C282.152 111.6 281.616 112.048 280.928 112.4C280.24 112.752 279.496 112.928 278.696 112.928C277.08 112.928 275.712 112.344 274.592 111.176C273.488 109.992 272.936 108.544 272.936 106.832C272.936 105.136 273.488 103.704 274.592 102.536C275.712 101.352 277.08 100.76 278.696 100.76C279.496 100.76 280.24 100.936 280.928 101.288C281.616 101.624 282.152 102.064 282.536 102.608V101H285.176V112.256C285.176 114.24 284.608 115.736 283.472 116.744C282.352 117.752 280.928 118.256 279.2 118.256ZM276.632 109.472C277.32 110.16 278.168 110.504 279.176 110.504C280.184 110.504 281.032 110.16 281.72 109.472C282.408 108.768 282.752 107.888 282.752 106.832C282.752 105.776 282.408 104.904 281.72 104.216C281.032 103.512 280.184 103.16 279.176 103.16C278.168 103.16 277.32 103.512 276.632 104.216C275.944 104.904 275.6 105.776 275.6 106.832C275.6 107.888 275.944 108.768 276.632 109.472ZM184.32 145.24C182.896 145.24 181.696 144.888 180.72 144.184C179.76 143.48 179.248 142.536 179.184 141.352H181.92C182.112 142.536 182.936 143.128 184.392 143.128C184.984 143.128 185.456 143.024 185.808 142.816C186.16 142.592 186.336 142.272 186.336 141.856C186.336 141.44 186.2 141.112 185.928 140.872C185.656 140.632 185.2 140.432 184.56 140.272L182.592 139.744C180.544 139.2 179.52 137.992 179.52 136.12C179.52 135.112 179.928 134.304 180.744 133.696C181.56 133.072 182.64 132.76 183.984 132.76C185.28 132.76 186.344 133.088 187.176 133.744C188.008 134.4 188.472 135.272 188.568 136.36H185.928C185.672 135.368 185.016 134.872 183.96 134.872C183.432 134.872 183.008 134.984 182.688 135.208C182.368 135.416 182.208 135.712 182.208 136.096C182.208 136.784 182.744 137.264 183.816 137.536L185.832 138.064C187.96 138.608 189.024 139.816 189.024 141.688C189.024 142.824 188.584 143.704 187.704 144.328C186.84 144.936 185.712 145.24 184.32 145.24ZM197.002 145.24C195.21 145.24 193.738 144.656 192.586 143.488C191.434 142.304 190.858 140.808 190.858 139C190.858 137.192 191.426 135.704 192.562 134.536C193.698 133.352 195.186 132.76 197.026 132.76C198.882 132.76 200.378 133.408 201.514 134.704C202.65 135.984 203.154 137.632 203.026 139.648H193.474C193.506 140.576 193.858 141.352 194.53 141.976C195.202 142.6 196.058 142.912 197.098 142.912C198.57 142.912 199.578 142.352 200.122 141.232H202.882C202.514 142.4 201.81 143.36 200.77 144.112C199.73 144.864 198.474 145.24 197.002 145.24ZM196.954 134.968C196.09 134.968 195.346 135.216 194.722 135.712C194.114 136.192 193.722 136.88 193.546 137.776H200.194C200.002 136.848 199.61 136.152 199.018 135.688C198.426 135.208 197.738 134.968 196.954 134.968ZM205.737 145V133H208.377V135.136C208.601 134.464 209.009 133.92 209.601 133.504C210.209 133.088 210.857 132.88 211.545 132.88C211.961 132.88 212.305 132.912 212.577 132.976V135.688C212.193 135.544 211.753 135.472 211.257 135.472C210.457 135.472 209.777 135.8 209.217 136.456C208.657 137.096 208.377 137.992 208.377 139.144V145H205.737ZM218.598 145L213.174 133H216.102L219.75 141.424L223.422 133H226.374L220.926 145H218.598ZM229.534 130.384C229.054 130.384 228.638 130.216 228.286 129.88C227.934 129.528 227.758 129.104 227.758 128.608C227.758 128.128 227.934 127.72 228.286 127.384C228.638 127.032 229.054 126.856 229.534 126.856C230.03 126.856 230.446 127.032 230.782 127.384C231.118 127.72 231.286 128.128 231.286 128.608C231.286 129.104 231.118 129.528 230.782 129.88C230.446 130.216 230.03 130.384 229.534 130.384ZM228.214 145V133H230.854V145H228.214ZM239.825 145.24C238.017 145.24 236.513 144.64 235.313 143.44C234.129 142.224 233.537 140.744 233.537 139C233.537 137.256 234.129 135.784 235.313 134.584C236.513 133.368 238.017 132.76 239.825 132.76C241.377 132.76 242.697 133.192 243.785 134.056C244.889 134.92 245.601 136.032 245.921 137.392H243.137C242.897 136.72 242.481 136.184 241.889 135.784C241.313 135.368 240.625 135.16 239.825 135.16C238.769 135.16 237.905 135.52 237.233 136.24C236.561 136.96 236.225 137.88 236.225 139C236.225 140.12 236.561 141.04 237.233 141.76C237.905 142.48 238.769 142.84 239.825 142.84C240.625 142.84 241.313 142.64 241.889 142.24C242.481 141.824 242.897 141.28 243.137 140.608H245.921C245.601 141.968 244.889 143.08 243.785 143.944C242.697 144.808 241.377 145.24 239.825 145.24ZM253.721 145.24C251.929 145.24 250.457 144.656 249.305 143.488C248.153 142.304 247.577 140.808 247.577 139C247.577 137.192 248.145 135.704 249.281 134.536C250.417 133.352 251.905 132.76 253.745 132.76C255.601 132.76 257.097 133.408 258.233 134.704C259.369 135.984 259.873 137.632 259.745 139.648H250.193C250.225 140.576 250.577 141.352 251.249 141.976C251.921 142.6 252.777 142.912 253.817 142.912C255.289 142.912 256.297 142.352 256.841 141.232H259.601C259.233 142.4 258.529 143.36 257.489 144.112C256.449 144.864 255.193 145.24 253.721 145.24ZM253.673 134.968C252.809 134.968 252.065 135.216 251.441 135.712C250.833 136.192 250.441 136.88 250.265 137.776H256.913C256.721 136.848 256.329 136.152 255.737 135.688C255.145 135.208 254.457 134.968 253.673 134.968Z" fill="#222B45"/>
<path d="M128 270C128 265.582 131.582 262 136 262H304C308.418 262 312 265.582 312 270V294C312 298.418 308.418 302 304 302H136C131.582 302 128 298.418 128 294V270Z" fill="white"/>
<path d="M208.077 287H209.589L212.165 277.06H210.429L208.609 284.284L205.767 276.892L202.911 284.284L201.105 277.06H199.383L201.945 287H203.457L205.767 280.924L208.077 287ZM216.14 287.14C218.212 287.14 219.808 285.53 219.808 283.5C219.808 281.47 218.212 279.86 216.14 279.86C214.068 279.86 212.472 281.47 212.472 283.5C212.472 285.53 214.068 287.14 216.14 287.14ZM216.14 285.712C214.894 285.712 214.026 284.746 214.026 283.5C214.026 282.254 214.894 281.288 216.14 281.288C217.372 281.288 218.24 282.254 218.24 283.5C218.24 284.746 217.372 285.712 216.14 285.712ZM221.357 287H222.897V283.584C222.897 282.184 223.695 281.442 224.577 281.442C224.857 281.442 225.081 281.47 225.347 281.568V279.986C225.165 279.944 224.955 279.93 224.745 279.93C223.947 279.93 223.163 280.448 222.897 281.246V280H221.357V287ZM229.313 287.14C230.321 287.14 231.161 286.622 231.553 286.062V287H233.093V276.5H231.553V280.938C231.161 280.378 230.321 279.86 229.313 279.86C227.395 279.86 225.939 281.498 225.939 283.5C225.939 285.502 227.395 287.14 229.313 287.14ZM229.593 285.74C228.361 285.74 227.507 284.76 227.507 283.5C227.507 282.24 228.361 281.26 229.593 281.26C230.825 281.26 231.679 282.24 231.679 283.5C231.679 284.76 230.825 285.74 229.593 285.74ZM237.644 287.14C239.212 287.14 240.388 286.426 240.388 285.068C240.388 284.004 239.8 283.276 238.526 282.954L237.35 282.646C236.748 282.492 236.412 282.254 236.412 281.806C236.412 281.358 236.832 281.092 237.434 281.092C237.98 281.092 238.428 281.358 238.582 281.96H240.122C240.01 280.7 238.96 279.86 237.448 279.86C235.88 279.86 234.844 280.644 234.844 281.82C234.844 282.842 235.418 283.612 236.636 283.934L237.784 284.242C238.512 284.424 238.82 284.676 238.82 285.166C238.82 285.656 238.358 285.908 237.686 285.908C237 285.908 236.37 285.642 236.244 284.872H234.648C234.718 286.286 236.02 287.14 237.644 287.14Z" fill="#8F9BB3"/>
<path d="M128 322C128 317.582 131.582 314 136 314H304C308.418 314 312 317.582 312 322V346C312 350.418 308.418 354 304 354H136C131.582 354 128 350.418 128 346V322Z" fill="white"/>
<path d="M184.29 339H190.478V337.432H185.928V329.06H184.29V339ZM194.484 339.14C195.492 339.14 196.332 338.622 196.724 338.062V339H198.264V332H196.724V332.938C196.332 332.378 195.492 331.86 194.484 331.86C192.566 331.86 191.11 333.498 191.11 335.5C191.11 337.502 192.566 339.14 194.484 339.14ZM194.764 337.74C193.532 337.74 192.678 336.76 192.678 335.5C192.678 334.24 193.532 333.26 194.764 333.26C195.996 333.26 196.85 334.24 196.85 335.5C196.85 336.76 195.996 337.74 194.764 337.74ZM200.35 339H201.89V335.556C201.89 334.044 202.674 333.26 203.696 333.26C204.592 333.26 205.152 333.918 205.152 335.038V339H206.692V334.786C206.692 333.008 205.642 331.86 204.018 331.86C203.108 331.86 202.324 332.238 201.89 332.952V332H200.35V339ZM211.827 342.066C213.703 342.066 215.313 341.002 215.313 338.566V332H213.773V332.938C213.339 332.322 212.499 331.86 211.533 331.86C209.643 331.86 208.173 333.428 208.173 335.402C208.173 337.39 209.643 338.958 211.533 338.958C212.499 338.958 213.339 338.482 213.773 337.866V338.692C213.773 340.036 212.933 340.75 211.869 340.75C210.875 340.75 210.217 340.386 209.937 339.546H208.425C208.607 341.002 209.895 342.066 211.827 342.066ZM211.813 337.544C210.637 337.544 209.727 336.648 209.727 335.402C209.727 334.156 210.637 333.26 211.813 333.26C212.989 333.26 213.899 334.156 213.899 335.402C213.899 336.648 212.989 337.544 211.813 337.544ZM219.892 339.14C220.788 339.14 221.53 338.762 221.936 338.048V339H223.476V332H221.936V335.444C221.936 336.956 221.236 337.74 220.228 337.74C219.332 337.74 218.828 337.054 218.828 335.934V332H217.288V336.186C217.288 337.978 218.282 339.14 219.892 339.14ZM228.418 339.14C229.426 339.14 230.266 338.622 230.658 338.062V339H232.198V332H230.658V332.938C230.266 332.378 229.426 331.86 228.418 331.86C226.5 331.86 225.044 333.498 225.044 335.5C225.044 337.502 226.5 339.14 228.418 339.14ZM228.698 337.74C227.466 337.74 226.612 336.76 226.612 335.5C226.612 334.24 227.466 333.26 228.698 333.26C229.93 333.26 230.784 334.24 230.784 335.5C230.784 336.76 229.93 337.74 228.698 337.74ZM237.448 342.066C239.324 342.066 240.934 341.002 240.934 338.566V332H239.394V332.938C238.96 332.322 238.12 331.86 237.154 331.86C235.264 331.86 233.794 333.428 233.794 335.402C233.794 337.39 235.264 338.958 237.154 338.958C238.12 338.958 238.96 338.482 239.394 337.866V338.692C239.394 340.036 238.554 340.75 237.49 340.75C236.496 340.75 235.838 340.386 235.558 339.546H234.046C234.228 341.002 235.516 342.066 237.448 342.066ZM237.434 337.544C236.258 337.544 235.348 336.648 235.348 335.402C235.348 334.156 236.258 333.26 237.434 333.26C238.61 333.26 239.52 334.156 239.52 335.402C239.52 336.648 238.61 337.544 237.434 337.544ZM246.101 339.14C247.893 339.14 249.125 338.104 249.531 336.802H247.921C247.599 337.474 246.941 337.782 246.157 337.782C244.925 337.782 244.085 336.942 244.043 335.878H249.615C249.769 333.498 248.257 331.86 246.115 331.86C243.945 331.86 242.517 333.428 242.517 335.5C242.517 337.6 244.015 339.14 246.101 339.14ZM246.073 333.148C246.927 333.148 247.725 333.652 247.963 334.786H244.085C244.295 333.708 245.107 333.148 246.073 333.148ZM253.66 339.14C255.228 339.14 256.404 338.426 256.404 337.068C256.404 336.004 255.816 335.276 254.542 334.954L253.366 334.646C252.764 334.492 252.428 334.254 252.428 333.806C252.428 333.358 252.848 333.092 253.45 333.092C253.996 333.092 254.444 333.358 254.598 333.96H256.138C256.026 332.7 254.976 331.86 253.464 331.86C251.896 331.86 250.86 332.644 250.86 333.82C250.86 334.842 251.434 335.612 252.652 335.934L253.8 336.242C254.528 336.424 254.836 336.676 254.836 337.166C254.836 337.656 254.374 337.908 253.702 337.908C253.016 337.908 252.386 337.642 252.26 336.872H250.664C250.734 338.286 252.036 339.14 253.66 339.14Z" fill="#8F9BB3"/>
<path d="M128 218C128 213.582 131.582 210 136 210H304C308.418 210 312 213.582 312 218V242C312 246.418 308.418 250 304 250H136C131.582 250 128 246.418 128 242V218Z" fill="white"/>
<path d="M203.082 235H206.946C208.836 235 210.152 233.726 210.152 232.088C210.152 230.856 209.466 230.1 208.556 229.722C209.102 229.316 209.48 228.7 209.48 227.804C209.48 226.306 208.29 225.06 206.512 225.06H203.082V235ZM204.72 233.502V230.646H206.904C207.968 230.646 208.556 231.248 208.556 232.074C208.556 232.914 207.968 233.502 206.904 233.502H204.72ZM204.72 229.246V226.558H206.428C207.324 226.558 207.87 227.174 207.87 227.902C207.87 228.672 207.324 229.246 206.428 229.246H204.72ZM211.691 235H213.231V224.5H211.691V235ZM218.465 235.14C220.537 235.14 222.133 233.53 222.133 231.5C222.133 229.47 220.537 227.86 218.465 227.86C216.393 227.86 214.797 229.47 214.797 231.5C214.797 233.53 216.393 235.14 218.465 235.14ZM218.465 233.712C217.219 233.712 216.351 232.746 216.351 231.5C216.351 230.254 217.219 229.288 218.465 229.288C219.697 229.288 220.565 230.254 220.565 231.5C220.565 232.746 219.697 233.712 218.465 233.712ZM226.846 238.066C228.722 238.066 230.332 237.002 230.332 234.566V228H228.792V228.938C228.358 228.322 227.518 227.86 226.552 227.86C224.662 227.86 223.192 229.428 223.192 231.402C223.192 233.39 224.662 234.958 226.552 234.958C227.518 234.958 228.358 234.482 228.792 233.866V234.692C228.792 236.036 227.952 236.75 226.888 236.75C225.894 236.75 225.236 236.386 224.956 235.546H223.444C223.626 237.002 224.914 238.066 226.846 238.066ZM226.832 233.544C225.656 233.544 224.746 232.648 224.746 231.402C224.746 230.156 225.656 229.26 226.832 229.26C228.008 229.26 228.918 230.156 228.918 231.402C228.918 232.648 228.008 233.544 226.832 233.544ZM234.868 235.14C236.436 235.14 237.612 234.426 237.612 233.068C237.612 232.004 237.024 231.276 235.75 230.954L234.574 230.646C233.972 230.492 233.636 230.254 233.636 229.806C233.636 229.358 234.056 229.092 234.658 229.092C235.204 229.092 235.652 229.358 235.806 229.96H237.346C237.234 228.7 236.184 227.86 234.672 227.86C233.104 227.86 232.068 228.644 232.068 229.82C232.068 230.842 232.642 231.612 233.86 231.934L235.008 232.242C235.736 232.424 236.044 232.676 236.044 233.166C236.044 233.656 235.582 233.908 234.91 233.908C234.224 233.908 233.594 233.642 233.468 232.872H231.872C231.942 234.286 233.244 235.14 234.868 235.14Z" fill="#8F9BB3"/>
<defs>
<filter id="filter0_d_2_2869" x="48" y="0" width="344" height="448" filterUnits="userSpaceOnUse" color-interpolation-filters="sRGB">
<feFlood flood-opacity="0" result="BackgroundImageFix"/>
<feColorMatrix in="SourceAlpha" type="matrix" values="0 0 0 0 0 0 0 0 0 0 0 0 0 0 0 0 0 0 127 0" result="hardAlpha"/>
<feOffset dy="8"/>
<feGaussianBlur stdDeviation="16"/>
<feColorMatrix type="matrix" values="0 0 0 0 0.133333 0 0 0 0 0.168627 0 0 0 0 0.270588 0 0 0 0.08 0"/>
<feBlend mode="normal" in2="BackgroundImageFix" result="effect1_dropShadow_2_2869"/>
<feBlend mode="normal" in="SourceGraphic" in2="effect1_dropShadow_2_2869" result="shape"/>
</filter>
</defs>
</svg>
