<svg width="16" height="20" viewBox="0 0 16 20" fill="none" xmlns="http://www.w3.org/2000/svg">
<path fill-rule="evenodd" clip-rule="evenodd" d="M7.98314 5.3229L2.36614 10.9399L2.10214 13.8959L5.07914 13.6249L10.6791 8.0189L7.98314 5.3229ZM13.9661 4.7289L11.2711 2.0349L9.32314 3.9829L12.0181 6.6789L13.9661 4.7289ZM1.09114 15.9959C1.06014 15.9989 1.03014 15.9999 1.00014 15.9999C0.736142 15.9999 0.481142 15.8959 0.293142 15.7069C0.0831418 15.4969 -0.0228583 15.2049 0.00414175 14.9099L0.383142 10.7389C0.425142 10.2819 0.627142 9.8509 0.952142 9.5259L9.94814 0.528898C10.6501 -0.175102 11.9241 -0.140102 12.6641 0.598898L15.4021 3.3369H15.4031C16.1691 4.1039 16.1991 5.3209 15.4711 6.0509L6.47414 15.0479C6.14914 15.3739 5.71914 15.5749 5.26114 15.6169L1.09114 15.9959ZM1 18H15C15.55 18 16 18.45 16 19C16 19.55 15.55 20 15 20H1C0.45 20 0 19.55 0 19C0 18.45 0.45 18 1 18Z" fill="#8F9BB3"/>
</svg>
