<svg width="14" height="14" viewBox="0 0 14 14" fill="none" xmlns="http://www.w3.org/2000/svg">
<path fill-rule="evenodd" clip-rule="evenodd" d="M9 7.66668H7.66666V9.00001C7.66666 9.36668 7.36666 9.66668 7 9.66668C6.63333 9.66668 6.33333 9.36668 6.33333 9.00001V7.66668H4.99999C4.63333 7.66668 4.33333 7.36668 4.33333 7.00001C4.33333 6.63334 4.63333 6.33334 4.99999 6.33334H6.33333V5.00001C6.33333 4.63334 6.63333 4.33334 7 4.33334C7.36666 4.33334 7.66666 4.63334 7.66666 5.00001V6.33334H9C9.36666 6.33334 9.66666 6.63334 9.66666 7.00001C9.66666 7.36668 9.36666 7.66668 9 7.66668ZM7 0.333344C3.324 0.333344 0.333328 3.32401 0.333328 7.00001C0.333328 10.676 3.324 13.6667 7 13.6667C10.676 13.6667 13.6667 10.676 13.6667 7.00001C13.6667 3.32401 10.676 0.333344 7 0.333344Z" fill="white"/>
</svg>
